<svg width="60" height="60" viewBox="0 0 60 60" fill="none" xmlns="http://www.w3.org/2000/svg">
<g clip-path="url(#clip0_102_9017)">
<path d="M30 60C46.5685 60 60 46.5685 60 30C60 13.4315 46.5685 0 30 0C13.4315 0 0 13.4315 0 30C0 46.5685 13.4315 60 30 60Z" fill="#D80027"/>
<path d="M16.418 18.2578L19.0078 26.2266H27.3867L20.6133 31.1602L23.2031 39.1289L16.418 34.207L9.63281 39.1289L12.2344 31.1602L5.44922 26.2266H13.8281L16.418 18.2578Z" fill="#FFDA44"/>
<path d="M35.5664 46.4648L33.5859 44.0273L30.6563 45.1641L32.3555 42.5273L30.375 40.0781L33.4102 40.8867L35.1211 38.25L35.2852 41.3906L38.332 42.1992L35.3906 43.3242L35.5664 46.4648Z" fill="#FFDA44"/>
<path d="M39.5039 39.3164L40.4414 36.3164L37.875 34.5L41.0156 34.4531L41.9414 31.4531L42.9609 34.4297L46.1016 34.3945L43.582 36.2695L44.5898 39.2461L42.0234 37.4297L39.5039 39.3164Z" fill="#FFDA44"/>
<path d="M44.8125 22.0195L43.4297 24.8437L45.6797 27.0352L42.5742 26.5898L41.1914 29.4023L40.6523 26.3086L37.5352 25.8633L40.3242 24.3984L39.7852 21.293L42.0352 23.4844L44.8125 22.0195Z" fill="#FFDA44"/>
<path d="M35.6484 13.4648L35.4141 16.5938L38.332 17.7773L35.2734 18.5273L35.0508 21.668L33.3984 18.9961L30.3398 19.7461L32.3672 17.3438L30.7031 14.6836L33.6211 15.8672L35.6484 13.4648Z" fill="#FFDA44"/>
</g>
<defs>
<clipPath id="clip0_102_9017">
<rect width="60" height="60" fill="white"/>
</clipPath>
</defs>
</svg>
