<svg width="60" height="60" viewBox="0 0 60 60" fill="none" xmlns="http://www.w3.org/2000/svg">
<g clip-path="url(#clip0_102_9012)">
<path d="M1.86621 40.4348C6.105 51.8587 17.1013 60 30.0002 60C42.8992 60 53.8955 51.8587 58.1343 40.4348L30.0002 37.8262L1.86621 40.4348Z" fill="#FFDA44"/>
<path d="M30.0002 0C17.1013 0 6.105 8.14125 1.86621 19.5653L30.0002 22.1739L58.1343 19.5652C53.8955 8.14125 42.8992 0 30.0002 0Z" fill="black"/>
<path d="M1.86598 19.5653C0.660117 22.8153 0 26.3304 0 30C0 33.6696 0.660117 37.1848 1.86598 40.4348H58.1341C59.34 37.1848 60 33.6696 60 30C60 26.3304 59.34 22.8153 58.134 19.5653H1.86598Z" fill="#D80027"/>
</g>
<defs>
<clipPath id="clip0_102_9012">
<rect width="60" height="60" fill="white"/>
</clipPath>
</defs>
</svg>
