<svg width="60" height="60" viewBox="0 0 60 60" fill="none" xmlns="http://www.w3.org/2000/svg">
<g clip-path="url(#clip0_133_885)">
<path d="M30 60C46.5685 60 60 46.5685 60 30C60 13.4315 46.5685 0 30 0C13.4315 0 0 13.4315 0 30C0 46.5685 13.4315 60 30 60Z" fill="#F9F9F9"/>
<path d="M58.134 40.4348C59.34 37.1848 60 33.6696 60 30C60 26.3304 59.34 22.8153 58.134 19.5653H1.86598C0.660117 22.8153 0 26.3304 0 30C0 33.6696 0.660117 37.1848 1.86598 40.4348L30 43.0435L58.134 40.4348Z" fill="#0052B4"/>
<path d="M30 60C42.8989 60 53.8952 51.8587 58.134 40.4347H1.86598C6.10477 51.8587 17.1011 60 30 60Z" fill="#D80027"/>
</g>
<defs>
<clipPath id="clip0_133_885">
<rect width="60" height="60" fill="white"/>
</clipPath>
</defs>
</svg>
