<svg xmlns="http://www.w3.org/2000/svg" version="1.1" xmlns:xlink="http://www.w3.org/1999/xlink" width="512" height="512" x="0" y="0" viewBox="0 0 512 512" style="enable-background:new 0 0 512 512" xml:space="preserve" class=""><g><g><path d="m476.17 390.4v116.58c0 2.77-2.24 5.02-5.02 5.02h-430.3c-2.77 0-5.02-2.25-5.02-5.02v-116.58c0-11.49 9.31-20.8 20.8-20.8h398.74c11.49 0 20.8 9.31 20.8 20.8z" fill="#f9d11f" ></path><path d="m476.17 390.4v116.58c0 2.77-2.24 5.02-5.02 5.02h-430.3c-2.77 0-5.02-2.25-5.02-5.02v-16.65h410.37c2.77 0 5.02-2.25 5.02-5.02v-94.91c0-11.49-9.31-20.8-20.8-20.8h24.95c11.49 0 20.8 9.31 20.8 20.8z" fill="#ffa402" ></path><path d="m451.22 476.37v30.57c0 2.79-2.27 5.06-5.07 5.06h-380.65c-2.79 0-5.06-2.27-5.06-5.06v-30.57c0-30.91 22.5-51.75 50-65.67l35-13.82c33.28-10.22 63.66-12.86 63.66-12.86h93.46s30.58 2.66 64.01 12.97l35 13.89c27.33 13.92 49.65 34.71 49.65 65.49z" fill="#eef0f5" ></path><path d="m451.22 476.37v30.57c0 2.79-2.27 5.06-5.07 5.06h-380.65c-2.79 0-5.06-2.27-5.06-5.06v-16.61h342.17c10.21 0 18.48-8.27 18.48-18.48 0-48.46-75.39-76.72-118.53-87.83 0 0 30.58 2.66 64.01 12.97l35 13.89c27.33 13.92 49.65 34.71 49.65 65.49z" fill="#dae1ea" ></path><path d="m135.167 235.567c-4.722 4.72-11.247 7.639-18.453 7.639-14.413 0-26.096-11.677-26.096-26.082 0-14.404 11.684-26.082 26.096-26.082 6.419 0 12.297 2.317 16.843 6.159z" fill="#d87c3d"  class=""></path><path d="m376.889 235.567c4.722 4.72 11.247 7.639 18.453 7.639 14.413 0 26.096-11.677 26.096-26.082 0-14.404-11.684-26.082-26.096-26.082-6.419 0-12.297 2.317-16.843 6.159z" fill="#d87c3d"  class=""></path><path d="m288.67 369.6-32.84 41.24-32.02-41.02c.47-1.4.88-2.89 1.24-4.43 1.46-6.17 2.09-13.31 2.09-20.44h58.95c0 6.99.41 13.98 1.54 20.07.29 1.6.64 3.13 1.04 4.58z" fill="#fab684" ></path><path d="m287.63 365.02c-10.17 3.71-20.82 5.71-31.8 5.71-10.61 0-20.92-1.87-30.78-5.34 1.46-6.17 2.09-13.31 2.09-20.44h58.95c0 6.99.41 13.98 1.54 20.07z" fill="#ed975d" ></path><path d="m206.387 422.746 2.709-38.722 14.71-14.202 32.022 41.023-42.563 16.928c-3.444 1.369-7.137-1.33-6.878-5.027z" fill="#dae1ea" ></path><path d="m305.27 422.746-2.709-38.722-13.891-14.424-32.842 41.244 42.563 16.928c3.445 1.37 7.138-1.329 6.879-5.026z" fill="#dae1ea" ></path><path d="m225.746 422.496 12.082 30.082h36l12.258-30.082-30.258-11.652z" fill="#ff6b81" ></path><path d="m288.83 512h-66l5.47-21.67 9.53-37.75h36l9.53 37.75z" fill="#ed2061" ></path><g><path d="m110.09 369.6h35v142.4h-35z" fill="#56788b" ></path></g><g><path d="m366.63 369.6h35v142.4h-35z" fill="#56788b" ></path></g><path d="m384.13 193.569h-256.54s-63.24-161.151 72.62-136.89c3.19-43.25 46.46-54.19 76.91-56.27 12.58-.85 22.97-.19 27.45.32 127.54 14.65 79.56 192.84 79.56 192.84z" fill="#56788b" ></path><path d="m384.13 193.569h-234.37c3.3-23.12 7.75-57.47 8.23-58.46 21.8-44.93 161.15-51.45 197.88-23.9.03.03.07.06.1.08 4.05 3.06 9.83.06 9.49-5-3.22-47.47-22.45-98.04-87.89-105.56-.37-.04-.52-.15-.45-.32 12.58-.85 22.97-.19 27.45.32 127.54 14.65 79.56 192.84 79.56 192.84z" fill="#415e6f" ></path><path d="m384.13 193.943-.11-.01c-3.76 65.99-43.11 130.54-95.52 150.14-10.43 3.91-21.38 6.03-32.67 6.03-68.01 0-123.69-77.05-128.2-156.17l-.04.01s11.21-42.23 30.4-58.46c1.22-1.04 2.47-1.97 3.75-2.77 35.63-22.35 154.6-25.24 188.25 0 20.27 15.199 34.14 61.23 34.14 61.23z" fill="#fab684" ></path><g fill="#d87c3d"><path d="m282.44 272.916c-3.831-1.58-8.215.244-9.794 4.072-2.818 6.829-9.42 11.241-16.818 11.241-7.397 0-13.999-4.413-16.817-11.241-1.579-3.83-5.963-5.651-9.794-4.072-3.828 1.581-5.651 5.965-4.071 9.794 5.144 12.465 17.188 20.52 30.683 20.52 13.496 0 25.54-8.054 30.684-20.52 1.579-3.829-.245-8.214-4.073-9.794z" fill="#d87c3d"  class=""></path><path d="m240.389 249.666c3.827 1.579 8.213-.243 9.794-4.071.945-2.292 3.162-3.772 5.646-3.772s4.701 1.48 5.646 3.772c1.194 2.893 3.989 4.64 6.936 4.64.953 0 1.923-.183 2.858-.569 3.829-1.581 5.651-5.965 4.071-9.794-3.271-7.926-10.931-13.048-19.512-13.048-8.58 0-16.239 5.122-19.511 13.048-1.58 3.829.242 8.214 4.072 9.794z" fill="#d87c3d"  class=""></path></g><path d="m384.13 193.943-.11-.01c-3.76 65.99-43.11 130.54-95.52 150.14 42.17-26.65 72.25-82.85 75.52-140.14l.11.01s-13.87-46.03-34.14-61.23c-29.59-22.19-125.14-22.64-172-7.23 1.22-1.04 2.47-1.97 3.75-2.77 35.63-22.35 154.6-25.24 188.25 0 20.27 15.199 34.14 61.23 34.14 61.23z" fill="#ed975d" ></path><path d="m283.36 490.33 5.47 21.67h-66l5.47-21.67z" fill="#c71e54" ></path><g fill="#415e6f"><path d="m110.09 490.33h35v21.67h-35z" fill="#415e6f" ></path><path d="m366.63 490.33h35v21.67h-35z" fill="#415e6f" ></path></g></g></g></svg>