<svg viewBox="0 0 120 120"  fill="none" id="success" xmlns="http://www.w3.org/2000/svg">
    <path d="M60 105C84.8528 105 105 84.8528 105 60C105 35.1472 84.8528 15 60 15C35.1472 15 15 35.1472 15 60C15 84.8528 35.1472 105 60 105Z" stroke="#059257" stroke-width="6" stroke-miterlimit="10" stroke-linecap="round" stroke-linejoin="round"/>
    <path fill="#059257" d="M77.1213 52.1213C78.2929 50.9497 78.2929 49.0503 77.1213 47.8787C75.9497 46.7071 74.0503 46.7071 72.8787 47.8787L77.1213 52.1213ZM55 70L52.8787 72.1213C54.0503 73.2929 55.9497 73.2929 57.1213 72.1213L55 70ZM47.1213 57.8787C45.9497 56.7071 44.0503 56.7071 42.8787 57.8787C41.7071 59.0503 41.7071 60.9497 42.8787 62.1213L47.1213 57.8787ZM72.8787 47.8787L52.8787 67.8787L57.1213 72.1213L77.1213 52.1213L72.8787 47.8787ZM57.1213 67.8787L47.1213 57.8787L42.8787 62.1213L52.8787 72.1213L57.1213 67.8787Z"/>
</svg>