<svg width="40" height="40" viewBox="0 0 40 40" fill="none" xmlns="http://www.w3.org/2000/svg">
<path d="M30.5424 9.35487L6.46057 18.6433C4.81694 19.3027 4.82669 20.2195 6.16098 20.6283L12.1671 22.5029L14.4651 29.5486C14.7445 30.3197 14.6068 30.6256 15.4166 30.6256C16.0415 30.6256 16.3187 30.3407 16.6668 30.0007C16.8881 29.7841 18.2023 28.5064 19.6697 27.0797L25.9171 31.6956C27.0667 32.3299 27.8968 32.0013 28.1831 30.6279L32.2841 11.3026C32.7039 9.61923 31.6423 8.85568 30.5424 9.35487ZM13.1097 22.0722L26.6474 13.5311C27.3232 13.1213 27.9429 13.3416 27.4341 13.7933L15.8423 24.252L15.3909 29.066L13.1097 22.0722Z" fill="#2F89CE"/>
</svg>
