<svg xmlns="http://www.w3.org/2000/svg" version="1.1" xmlns:xlink="http://www.w3.org/1999/xlink" width="512"
     height="512" x="0" y="0" viewBox="0 0 16.933333 16.933334"
     style="enable-background:new 0 0 512 512" xml:space="preserve">
    <g>
        <g id="layer1" transform="translate(0 -280.067)">
            <path id="path31969"
                  d="m1.3229119 281.38957h13.2291701c.29316 0 .52917.23601.52917.52917v8.46667c0 .29316-.23601.52917-.52917.52917h-13.2291701c-.29316 0-.52917001-.23601-.52917001-.52917v-8.46667c0-.29316.23601001-.52917.52917001-.52917z"
                  fill="#e7ebef"></path>
            <path
                    id="path31959" d="m1.8520819 282.44791h12.1708301v7.40833h-12.1708301z" fill="#68b1fc"
            ></path>
            <path id="path31961"
                  d="m4.2333248 288.26874h2.64584c.73289 0 1.3229101.59002 1.3229101 1.32292v.26458h-5.2916599v-.26458c0-.7329.5900198-1.32292 1.3229098-1.32292z"
                  fill="#fcb860"></path>
            <path id="path31963"
                  d="m5.5562489 288.79791c-.6697199 0-.79375-.52917-.79375-.52917v-1.32291h1.5875v1.32291s-.12402.52917-.79375.52917z"
                  fill="#fdd5a6"

            ></path>
            <path
                    id="path31965"
                    d="m5.291669 283.50624h.5291699c.73289 0 1.3229101.59002 1.3229101 1.32292v.79375h-3.1750001v-.79375c.0000101-.7329.5900201-1.32292 1.3229201-1.32292z"
                    fill="#5a626e"></path>
            <path id="path31973"
                  d="m13.229172 294.35416h1.58751c.73289 0 1.32291.59002 1.32291 1.32292l-.00001.52916h-4.23333l.00001-.52916c.00001-.7329.59002-1.32292 1.32291-1.32292z"
                  fill="#59e78b"></path>
            <path
                    id="path31975"
                    d="m7.672922 294.35416h1.5875098c.73289 0 1.3229102.59002 1.3229102 1.32292l-.00001.52916h-4.2333301l.00001-.52916c.0000101-.7329.5900201-1.32292 1.3229101-1.32292z"
                    fill="#68b1fc"></path>
            <path id="path31977"
                  d="m2.1166719 294.35416h1.5875101c.73289 0 1.3229098.59002 1.3229098 1.32292l-.0000098.52916h-4.23333011l.00001001-.52916c.00001-.7329.59002-1.32292 1.32291-1.32292z"
                  fill="#fc6067"></path>
            <g
                    fill="#fdd5a6"><path id="rect31979" d="m2.9104309 291.97291c.586317 0 1.0583331.47202 1.0583331 1.05833v.26459c0 .58631-.4720161 1.05833-1.0583331 1.05833s-1.058333-.47202-1.058333-1.05833v-.26459c0-.58631.472016-1.05833 1.058333-1.05833z" fill="#fdd5a6"  ></path>
                <path id="rect31981"
                      d="m8.4666598 291.97291c.5863162 0 1.0583331.47202 1.0583331 1.05833v.26459c0 .58631-.4720169 1.05833-1.0583331 1.05833-.5863169 0-1.0583339-.47202-1.0583339-1.05833v-.26459c0-.58631.472017-1.05833 1.0583339-1.05833z"
                      fill="#fdd5a6"></path>
                <path id="rect31983"
                      d="m14.022904 291.97291c.586316 0 1.058333.47202 1.058333 1.05833v.26459c0 .58631-.472017 1.05833-1.058333 1.05833-.586317 0-1.058334-.47202-1.058334-1.05833v-.26459c0-.58631.472017-1.05833 1.058334-1.05833z"
                      fill="#fdd5a6"></path></g>
            <path id="path33887-4"
                  d="m14.079243 281.38957c.12804.14149.208772.32637.208772.52969v7.9375c0 .43516-.359619.79272-.794782.79272h-12.1703172c-.2005886 0-.3827754-.0781-.52296488-.20258.0306229.26362.25086998.46767.52296488.46767h13.2291672c.293161 0 .529166-.236.529166-.52916v-8.46667c0-.29316-.236005-.52917-.529166-.52917z"
                  fill="#dbe1e7"


                  vector-effect="none"
            ></path>
            <path
                    id="path33893-2"
                    d="m2.9104158 291.97291c-.080711 0-.1586494.0104-.2340954.0274.3036756.24222.5002292.61274.5002292 1.02991v.26561c0 .41758-.1970802.78822-.501261 1.03043.07579.0171.1540139.0279.2351272.0279.5863167 0 1.0583334-.47202 1.0583334-1.05834v-.26458c0-.58632-.4720167-1.05833-1.0583334-1.05833z"
                    fill="#fdcc93"

                    vector-effect="none"></path>
            <path id="path33895-0"
                  d="m14.022916 291.97291c-.08089 0-.159017.0104-.234611.0274.303487.24223.49971.61289.49971 1.02991v.26561c0 .41743-.196749.78822-.500742 1.03043.07594.0172.154358.0279.235643.0279.586317 0 1.058333-.47202 1.058333-1.05834v-.26458c0-.58632-.472016-1.05833-1.058333-1.05833z"
                  fill="#fdcc93"


                  vector-effect="none"
            ></path>
            <path id="path33899-3"
                  d="m8.4666659 291.97291c-.08146 0-.1600729.0106-.2361618.0279.3031649.24225.4991947.61264.4991947 1.0294v.26561c0 .41717-.1965537.78769-.5002266 1.02992.07643.0174.1553316.0284.2371937.0284.5863167 0 1.0583333-.47202 1.0583333-1.05834v-.26458c0-.58632-.4720166-1.05833-1.0583333-1.05833z"
                  fill="#fdcc93"


                  vector-effect="none"

            ></path>
            <path
                    id="path35007-2"
                    d="m9.0785149 294.35416c.4284345.28473.7115783.77139.7115836 1.32291.0005292.1472-.1186815.26618-.2656152.26562h-3.1739682c-.0001746 0-.0002645 0-.0005291 0v.26355h4.233333v-.52917c0-.73289-.5900258-1.32291-1.3229163-1.32291z"
                    fill="#4fa4fb"

                    vector-effect="none"></path>
            <path id="path35009-9"
                  d="m14.634765 294.35416c.428453.28473.712094.77138.712102 1.32291.000529.1472-.118684.26618-.265618.26562h-3.173965c-.000265 0-.000794 0-.0011 0v.26355h4.233334v-.52917c0-.73289-.590026-1.32291-1.322917-1.32291z"
                  fill="#41e37a"


                  vector-effect="none"
            ></path>
            <path id="path35011-8"
                  d="m3.5232993 294.35416c.4284504.28473.7120943.77138.7120996 1.32291.0005292.1472-.1186815.26618-.2656152.26562h-3.17396821c-.00079375.00001-.001323-.00053-.002117-.00053v.26408h4.23333381v-.52917c0-.73289-.5900262-1.32291-1.3229167-1.32291z"
                  fill="#fb4f56"


                  vector-effect="none"
            ></path>
            <path
                    id="path35015-3"
                    d="m1.8520825 282.44791v7.40833h.7927155v-6.87865c-.0005292-.14693.1192001-.26618.2661338-.26561h11.1114682c.000175-.00001.000265 0 .000529 0v-.26407z"
                    fill="#4fa4fb"

                    vector-effect="none"></path>
            <path id="path35071-4"
                  d="m6.6951984 288.26874c.429387.28392.7136501.7702.7136501 1.3224v.2651h.7932341v-.26458c0-.7329-.5900262-1.32292-1.3229167-1.32292z"
                  fill="#fbb04f"


                  vector-effect="none"
            ></path>
            <path id="path35075-7"
                  d="m4.7624992 286.94686v1.1622c.2460175.10161.5136356.15968.7947845.15968.2803446 0 .5475314-.0575.7927155-.15865v-1.16323z"
                  fill="#fdcc93"


                  vector-effect="none"

            ></path>
            <path
                    id="path35083-2"
                    d="m5.6260119 283.50624c.4338267.28336.7245032.76807.7245032 1.32343v.63924l.1539955.154h.6392386v-.79375c0-.73289-.5900261-1.32292-1.3229167-1.32292z"
                    fill="#515663"

                    vector-effect="none"></path>
            <path id="path31967"
                  d="m6.3499989 285.09374s-.79375.52916-1.5875.52916h-.5291701v.52917c-.0000098.73289.5900301 1.32292 1.3229201 1.32292.7329001 0 1.3229101-.59003 1.3229101-1.32292v-.52917z"
                  fill="#fdd5a6"
            ></path>
            <path id="path35079-5"
                  d="m6.3499992 285.09374s-.1132258.0672-.2650993.1478v.91053c0 .5463-.2798259 1.02512-.701249 1.31052.056671.007.1138608.0124.1725983.0124.7329011 0 1.3229167-.59002 1.3229167-1.32292v-.52916z"
                  fill="#fdcc93"


                  vector-effect="none"

            ></path>
            <path
                    id="path31971"
                    d="m8.7312418 280.86041h6.8791702c.29316 0 .52917.236.52917.52916v4.23334c0 .29315-.23601.52916-.52917.52916h-4.49791l-1.8520901 1.5875v-1.5875h-.5291701c-.2931498 0-.5291598-.23601-.5291598-.52916v-4.23334c0-.29316.23601-.52916.5291598-.52916z"
                    fill="#fc6067"></path>
            <path id="path31985"
                  d="m11.112502 284.82916 2.11668-1.32292-2.11668-1.32292z"
                  fill="#e7ebef"></path>
            <path
                    id="path35021-2"
                    d="m15.137576 280.86041c.128352.14092.209291.32567.209291.52916v3.70314c0 .43516-.36014.7953-.7953.7953h-3.341915l-1.7771537 1.52342c-.052057.045-.1126649.0627-.1720824.0625v.26561l1.8520831-1.5875h4.497917c.293161 0 .529167-.236.529167-.52916v-4.23334c0-.29315-.236006-.52916-.529167-.52916z"
                    fill="#fb4f56"

                    vector-effect="none"></path>
            <path id="path3466-7"
                  d="m8.7312479 280.59686c-.3420459 0-.6333601.22219-.7436249.52813h-6.6647091c-.43516301 0-.79375.35859-.79375.79375v2.64583c-.0051.35784.53426.35784.529167 0v-2.64583c0-.15115.113424-.26458.264583-.26458h6.615618v.52916h-6.086451c-.146119.00002-.264568.11847-.264584.26459v7.40833c.000014.14612.118465.26457.264584.26458h12.1708331c.146119-.00001.26457-.11846.264584-.26458v-3.43907h.529166v3.96824c0 .15115-.113424.26458-.264583.26458h-13.2291671c-.151159 0-.264583-.11343-.264583-.26458v-3.43959c.0051-.35783-.53425999-.35783-.529167 0v3.43959c0 .43516.35858699.79375.79375.79375h13.2291671c.435163 0 .79375-.35859.79375-.79375v-3.96824h.264067c.435161 0 .795301-.36013.795301-.7953v-4.2323c0-.43516-.36014-.79271-.795301-.79271zm0 .5271h6.8786501c.151159 0 .266134.11446.266134.26561v4.2323c0 .15116-.114977.26614-.266134.26614h-4.497916c-.06273-.00027-.123537.0217-.171567.062l-1.4164521 1.21491v-1.01337c-.0005292-.14531-.1182341-.26296-.2635491-.26354h-.5291659c-.1511461 0-.2635491-.11499-.2635491-.26614v-4.2323c0-.15115.1124051-.26561.2635491-.26561zm2.1171821 1.05885v2.64635c.000045.20741.227862.33414.404112.22479l2.117182-1.3224c.166132-.1036.166132-.34547 0-.44907l-2.117182-1.32446c-.158684-.0993-.404112-.0105-.404112.22479zm.529167.47852 1.351857.84543-1.351857.84387zm-9.2609331.0512h5.821868v2.90938c0 .43516.3575611.7953.792716.7953h.263548v1.32189c-.0013.22728.265793.35021.437701.20154l1.7771531-1.52343h2.548681v3.17449h-5.2916672c0-.87491-.713123-1.58595-1.588016-1.58595h-.2635509v-.67386c.3240011-.29102.529685-.71151.529685-1.17978v-.26354c.146119-.00053.2641071-.1195.2635491-.26562v-.79324c0-.8749-.7131241-1.58801-1.588016-1.58801h-.5291672c-.874903 0-1.585939.71312-1.5859488 1.58801v.79324c-.0005291.14612.1174298.26503.2635478.26562v.26354c-.0000069.46819.2047401.88877.528651 1.17978v.67386h-.2651019c-.8748951 0-1.585949.71104-1.585949 1.58595h-.529683zm3.1744839 1.05885h.5291672c.590886 0 1.058331.46743 1.0583328 1.05833v.42013l-.3420978-.34213c-.08918-.0892-.2283732-.10301-.3333141-.0331 0 0-.7656121.48472-1.4417731.48472h-.5291669v-.52969c.0000079-.5909.4679529-1.05833 1.0588519-1.05833zm-4.5015329 1.58337c-.14592301.002-.26244799.12227-.260451.2682v.26458c-.0051.35783.53426.35783.529167 0v-.26458c.0021-.14917-.11955699-.27053-.268716-.2682zm5.5180071.0708.3074749.3085v.41807c0 .59088-.467437 1.05833-1.0583339 1.05833-.5908831 0-1.0593731-.46746-1.0593652-1.05833v-.26355h.264065c.6784102 0 1.3702882-.34985 1.5461592-.46302zm-1.2800251 2.22156c.1657641.0589.343572.093.5291661.093.1857669 0 .3632759-.034.529167-.093v.57155s-.08965.31419-.529167.31419c-.4395171 0-.5291661-.31058-.5291661-.31058zm-.795301.88574h.358635s.2283302.52917.9658321.52917c.7375028 0 .965317-.52917.965317-.52917h.3565678c.5908861 0 1.0588501.46795 1.0588501 1.05885h-4.7614661c0-.5909.4653781-1.05885 1.0562641-1.05885zm-1.321366 3.175c-.728318 0-1.324467.59408-1.324467 1.3224v.26562c0 .30798.111323.58821.289388.81338-.7609179.11655-1.345642.7743-1.345652 1.56735v.52968c-.00052917.14612.11742999.26504.26354799.26562h4.23229901c.1469289.00053.266179-.11869.2656181-.26562v-.52968c0-.79279-.585838-1.45048-1.3466871-1.56735.17766-.22517.288354-.5054.288354-.81338v-.26562c0-.72832-.5940819-1.3224-1.322401-1.3224zm5.5567689 0c-.7283209 0-1.3244668.59408-1.3244668 1.3224v.26562c0 .30793.1108519.58823.2888689.81338-.761092.11666-1.347192.77439-1.3472031 1.56735v.52968c-.0005291.14693.1186871.26618.2656152.26562h4.232302c.146928.00053.266176-.11869.265615-.26562v-.52968c0-.7927-.585962-1.45037-1.3466871-1.56735.1776629-.22517.288354-.5054.288354-.81338v-.26562c0-.72832-.59408-1.3224-1.3223981-1.3224zm5.5546992 0c-.728321 0-1.3224.59408-1.3224 1.3224v.26562c0 .30798.110693.58821.288353.81338-.760846.11688-1.347192.77456-1.347203 1.56735v.52968c-.000529.14713.119005.26647.266134.26562h4.232299c.146928.00053.266179-.11869.265618-.26562v-.52968c0-.79306-.586505-1.4508-1.347722-1.56735.178065-.22517.28887-.5054.28887-.81338v-.26562c0-.72832-.59563-1.3224-1.323949-1.3224zm-11.1114681.52968c.4443151 0 .7927179.34841.7927179.79272v.26562c0 .44431-.3484028.79323-.7927179.79323-.444315 0-.794782-.34892-.794782-.79323v-.26562c0-.44431.350467-.79272.794782-.79272zm5.5567689 0c.4443122 0 .792715.34841.792715.79272v.26562c0 .44431-.3484028.79323-.792715.79323-.444315 0-.795301-.34892-.795301-.79323v-.26562c0-.44431.350986-.79272.795301-.79272zm5.5546992 0c.444312 0 .794782.34841.794782.79272v.26562c0 .44431-.35047.79323-.794782.79323-.444314 0-.793234-.34892-.793234-.79323v-.26562c0-.44431.34892-.79272.793234-.79272zm-11.9062501 2.38074h1.5874999c.590886 0 1.0588501.46743 1.0588501 1.05833v.26613h-3.705202v-.26613c.0000081-.5909.467964-1.05833 1.058852-1.05833zm5.5562499 0h1.588016c.590886 0 1.0588492.46743 1.0588492 1.05833v.26613h-3.705198v-.26613c.000008-.5909.4674468-1.05833 1.0583328-1.05833zm5.5567662 0h1.588016c.590886 0 1.058852.46743 1.058852 1.05833v.26613h-3.705201v-.26613c.000008-.5909.467447-1.05833 1.058333-1.05833z"
                  vector-effect="none"
                  fill="#000000"></path>
        </g>
    </g>
</svg>